Coordinates
version=1
nRows=9
nColumns=36
inDegrees=yes

Units are S.I. units (second, meters, Newtons, ...)
If the header above contains a line with 'inDegrees', this indicates whether rotational values are in degrees (yes) or radians (no).

endheader
time	pelvis_tilt	pelvis_list	pelvis_rotation	pelvis_tx	pelvis_ty	pelvis_tz	hip_flexion_r	hip_adduction_r	hip_rotation_r	knee_angle_r	knee_angle_r_beta	ankle_angle_r	subtalar_angle_r	mtp_angle_r	hip_flexion_l	hip_adduction_l	hip_rotation_l	knee_angle_l	knee_angle_l_beta	ankle_angle_l	subtalar_angle_l	mtp_angle_l	lumbar_extension	lumbar_bending	lumbar_rotation	arm_flex_r	arm_add_r	arm_rot_r	elbow_flex_r	pro_sup_r	arm_flex_l	arm_add_l	arm_rot_l	elbow_flex_l	pro_sup_l
      3.41666670	     -2.07211272	      1.17389305	      0.77864741	      0.00486667	      0.80271793	      0.13043332	      6.44055881	      0.17530530	     -6.31482479	      4.03339089	      0.07039595	      4.27730380	     -4.46889891	     -7.49999987	      4.52960421	     -3.84710849	     -6.61560057	      3.21321040	      0.05608110	      5.83873429	     -1.09611310	     -7.49999987	     -1.07509263	     -0.03298127	     -2.31112813	     54.02675934	     18.02093582	     66.49390068	    126.91808838	    102.06258975	     32.55731776	     19.30492770	     39.32164532	    137.70411649	     89.45983837
      3.43333330	     -2.14176614	      1.15954815	      0.81550673	      0.00350379	      0.80009052	      0.13063398	      6.36904552	      0.19327055	     -6.43364442	      3.77750818	      0.06592996	      4.34968044	     -4.04961923	     -7.49999987	      4.63286760	     -3.85046455	     -6.78409034	      3.09658488	      0.05404560	      5.86616488	     -0.81134851	     -7.49999987	     -1.06808381	     -0.05987903	     -2.28989625	     54.22850404	     18.06347764	     66.32076860	    126.89322857	    103.73702908	     32.86969010	     19.18286850	     39.07708608	    137.48447880	     91.31241885
      3.45000000	     -2.17503078	      1.17174733	      0.92377732	      0.00578273	      0.80139038	      0.12997454	      6.19976441	      0.16062629	     -6.29564962	      3.53608382	      0.06171631	      4.16068150	     -4.07230303	     -7.49999987	      4.68710592	     -3.82071117	     -6.59246769	      3.03860916	      0.05303373	      5.69750108	     -0.95432896	     -7.49999987	     -1.06035611	     -0.14523088	     -2.28832615	     54.46278869	     18.15717383	     66.37697750	    127.08929617	    101.72530692	     33.10423572	     19.15106535	     39.12364495	    137.55519537	     89.07803391
      3.46666670	     -2.02038352	      1.15234564	      0.94925108	      0.00420297	      0.79614552	      0.13039814	      5.94967152	      0.18148634	     -6.43315314	      3.34270070	      0.05834113	      4.08216669	     -4.16626835	     -7.49999987	      4.50374905	     -3.85220725	     -6.64823083	      3.01366674	      0.05259841	      5.93063068	     -0.89641978	     -7.49999987	     -1.19569470	     -0.10825148	     -2.11050049	     55.11128482	     18.34425264	     66.08230660	    126.69703412	    101.02953736	     33.47492868	     19.16427236	     39.46798128	    137.47445965	     88.89223217
      3.48333330	     -2.17490317	      1.14025826	      0.90485273	      0.00433796	      0.79597111	      0.13033079	      6.11014524	      0.22562774	     -6.45906683	      3.24134422	      0.05657213	      4.11831472	     -4.29229998	     -7.49999987	      4.66037978	     -3.87255913	     -6.72368903	      2.96155146	      0.05168882	      6.14271679	     -0.73426811	     -7.49999987	     -0.90326703	     -0.18293941	     -1.80005914	     55.50222123	     18.47619626	     65.41424705	    126.34072504	    104.11409235	     33.48034433	     19.40667976	     39.83564756	    137.31873613	     92.35900478
      3.50000000	     -2.16822480	      1.14175294	      0.92809159	      0.00636500	      0.79696001	      0.12952626	      6.00711167	      0.22560037	     -6.55137888	      3.10430051	      0.05418026	      3.97558159	     -4.51822165	     -7.49999987	      4.63892916	     -3.86890195	     -6.68234432	      3.01139586	      0.05255877	      6.25099670	     -0.80313430	     -7.49999987	     -0.71654569	     -0.20872035	     -1.56939494	     55.59574665	     18.46521667	     65.09965625	    126.18428983	    104.03394475	     33.52202727	     19.53512717	     39.66603780	    137.13088487	     92.28949435
      3.51666670	     -2.14476475	      1.12431825	      0.92362687	      0.00786830	      0.79928043	      0.12920180	      5.88953584	      0.23923513	     -6.62879485	      2.98117341	      0.05203129	      3.61312111	     -4.88704171	     -7.49999987	      4.49978393	     -3.87164600	     -6.73873091	      2.99903837	      0.05234309	      6.35526794	     -0.72159195	     -7.49999987	     -0.55015365	     -0.21532356	     -1.64673924	     55.45095651	     18.46569550	     64.90574839	    126.17398329	    104.05392671	     33.47754895	     19.33261650	     38.83547457	    136.08556919	     92.10486079
      3.53333330	     -2.13183935	      1.11702863	      1.02909871	      0.00871759	      0.79900591	      0.12848130	      5.66445245	      0.23567710	     -6.88620415	      2.72078523	      0.04748666	      3.48049622	     -4.86880847	     -7.49999987	      4.45925297	     -3.83076815	     -6.53245064	      3.00992656	      0.05253313	      6.41178628	     -0.84637492	     -7.49999987	     -0.32457182	     -0.22166653	     -1.57805363	     55.26675987	     18.24104830	     64.59859675	    126.17378004	    104.01585050	     33.41074524	     19.27207521	     38.28797271	    135.41387116	     92.19499333
      3.55000000	     -2.10241517	      1.09162282	      1.02543206	      0.00852373	      0.79951175	      0.12852406	      5.49297918	      0.25913879	     -6.82463525	      2.58589231	      0.04513233	      3.24607072	     -5.10733498	     -7.49999987	      4.36959438	     -3.83691103	     -6.55692734	      3.12445876	      0.05453209	      6.47366467	     -0.78110575	     -7.49999987	     -0.07790139	     -0.22415645	     -1.39940529	     55.05994445	     18.05943977	     64.34099025	    126.19806206	    103.43150549	     33.38622759	     19.24203437	     37.61953332	    134.60671308	     91.78122707
